<?xml version="1.0" encoding="UTF-8"?>
<svg width="200px" height="200px" viewBox="0 0 200 200" version="1.1" xmlns="http://www.w3.org/2000/svg" xmlns:xlink="http://www.w3.org/1999/xlink">
    <!-- Generator: Sketch 54.1 (76490) - https://sketchapp.com -->
    <title>york-ny</title>
    <desc>Created with Sketch.</desc>
    <g id="york-ny" stroke="none" stroke-width="1" fill="none" fill-rule="evenodd">
        <g id="york-ny_BGL">
            <g id="Group-95" transform="translate(5.000000, 1.000000)">
                <g id="Group-94" transform="translate(0.000000, 0.222393)">
                    <path d="M43.2927349,170.602542 C40.1875195,170.599585 37.0805298,170.543986 33.9782718,170.637439 C32.4753475,170.68239 31.9832448,170.189696 32.26301,168.711022 C33.3554543,162.923492 34.0658093,157.072675 35.0210327,151.26681 C36.5257313,142.122098 37.980155,132.972655 39.3529559,123.806651 C40.334204,117.254351 41.4928929,110.728075 42.5776481,104.190562 C42.9023649,102.235164 42.7503572,100.207014 43.5529815,98.318452 C43.8291978,97.6672439 43.4116202,97.0414691 43.1336295,96.4310725 C35.5160927,79.6960319 27.9157085,62.9538938 20.2952143,46.2200362 C13.7038772,31.7455924 7.09538748,17.2788377 0.482757479,2.81385742 C-0.448807124,0.775653219 0.817529266,0.816464621 2.23232452,0.81764756 C20.7151577,0.83125136 39.1985824,0.827111073 57.6814156,0.827111073 C65.2226528,0.827111073 72.7638901,0.880934806 80.3039444,0.78807408 C81.9902242,0.766781175 82.8815689,1.2718962 83.3050611,2.89962051 C84.8547114,8.85985956 86.39963,14.823056 88.0853183,20.745441 C88.6436656,22.7067541 88.7708316,24.8194835 90.027113,26.8701085 C92.6461403,22.4122023 95.1829534,18.100389 97.7138517,13.7844354 C99.9052466,10.0487134 102.130947,6.33251001 104.254914,2.55893403 C105.000757,1.23522509 105.95598,0.796946124 107.451216,0.799312003 C134.287965,0.833025769 161.125306,0.816464621 187.962648,0.83184283 C188.57541,0.8324343 189.459657,0.497662512 189.755392,1.21688953 C190.029242,1.88229282 189.227209,2.36611494 188.852809,2.86058352 C178.783631,16.1497222 130.564116,79.466186 130.351464,79.7004353 C129.90381,79.1708209 129.408348,78.2961029 128.896128,77.8991473 C128.846061,77.8603251 128.094912,77.6375722 127.489611,77.2619683 C124.660212,75.506258 127.481467,76.169727 128.516996,74.814042 C145.427703,52.680067 162.269209,30.4922683 179.124317,8.31570754 C179.822252,7.39774674 180.49771,6.46322479 181.360072,5.29743823 C180.769786,5.26195005 180.506582,5.2317851 180.243378,5.2317851 C156.588735,5.23060216 132.934683,5.24598037 109.28004,5.19393105 C107.977624,5.1909737 107.486112,5.81970587 106.944918,6.74476431 C101.909146,15.3488724 96.8414341,23.9340535 91.8098023,32.5405275 C90.6824613,34.4687184 89.656853,36.4566476 88.4070778,38.7409032 C88.1976975,38.0802317 88.1054283,37.8247168 88.0356349,37.5638787 C85.3125089,27.4391023 82.5645412,17.320832 79.9023365,7.18008593 C79.5273448,5.75286981 79.0470715,5.18091872 77.4223046,5.18565047 C54.433656,5.25366948 31.4444161,5.23001069 8.45517607,5.24302302 C7.91457286,5.24302302 7.3012189,5.03778308 6.71448107,5.56537395 C7.06995429,6.39816313 7.39526257,7.20611059 7.75546754,7.99808837 C20.9487882,37.0291902 34.1444747,66.0591091 47.3484418,95.0854792 C47.7778488,96.0300561 48.1587552,96.9054311 47.9801314,98.0309977 C44.515894,119.846171 41.0960168,141.669033 37.6542553,163.487754 C37.2402266,166.110922 37.2053299,166.10619 39.9024312,166.10619 C58.7519755,166.103824 77.6015198,166.100275 96.4516556,166.099684 C97.319933,166.099684 98.2225156,165.919877 98.7376856,166.976242 C99.3492652,168.230749 100.064352,169.434981 100.735078,170.660506 C81.5874334,170.640987 62.4403799,170.620877 43.2927349,170.602542 Z" id="Fill-4" fill="#282222"></path>
                    <path d="M126.491169,77.9154433 C130.689268,81.2276825 133.907196,85.4555082 135.643022,91.0484627 C136.239815,92.9701473 136.728369,94.8847344 136.089582,96.9134751 C135.777286,97.9047781 136.162332,98.7754214 136.760308,99.598747 C142.033851,106.855487 145.908568,114.929047 150.291358,122.707464 C150.793729,123.59951 150.626791,123.98884 150.221532,124.248471 C151.612636,124.399519 152.5874,124.530661 152.529616,124.668186 C152.189118,125.478563 148.229551,127.169327 146.052295,128.073276 C141.004436,130.169038 136.094905,132.479724 131.099944,134.645686 C130.469438,134.918945 130.190855,135.223552 130.523853,135.989505 C133.141106,142.010665 132.238523,148.177919 131.006492,154.275379 C128.464947,166.848839 123.625543,178.66167 118.687363,190.431915 C117.982332,192.111688 117.348868,193.821627 116.618994,195.67825 C115.213662,194.640221 114.440612,193.313555 113.659872,192.008773 C109.802899,185.558797 105.966035,179.0964 102.107879,172.646424 C101.696216,171.957362 101.19465,171.321532 100.735078,170.660861 C100.064352,169.434744 99.3492652,168.230512 98.7376856,166.976005 C98.2225156,165.919641 97.319933,166.100039 96.4510642,166.100039 C77.6015198,166.10063 58.7519755,166.104179 39.9024312,166.105953 C37.2053299,166.105953 37.2402266,166.110685 37.6542553,163.488109 C41.0960168,141.668796 44.515894,119.846525 47.9801314,98.0307612 C48.1587552,96.9051945 47.7778488,96.0298195 47.3484418,95.0858341 C34.1444747,66.059464 20.9487882,37.0289536 7.75546754,7.99785178 C7.39526257,7.205874 7.06995429,6.39792654 6.71448107,5.56513736 C7.3012189,5.03754649 7.91457286,5.24337791 8.45517607,5.24278644 C31.4444161,5.23036558 54.433656,5.25343289 77.4223046,5.18600536 C79.0470715,5.18068213 79.5273448,5.75263322 79.9023365,7.17984934 C82.5645412,17.3205954 85.3125089,27.4388657 88.0350434,37.5636421 C88.1054283,37.8250717 88.1976975,38.0799951 88.4070778,38.7406666 C89.656853,36.4570025 90.6824613,34.4684818 91.8098023,32.5408824 C96.8414341,23.9344084 101.909146,15.3486358 106.944918,6.74511919 C107.486112,5.82006076 107.977624,5.19073711 109.28004,5.19369446 C132.934683,5.24574378 156.588735,5.23036558 180.243378,5.23213998 C180.506582,5.23213998 180.769786,5.26171346 181.360072,5.29720164 C180.49771,6.4629882 179.822252,7.39751015 179.124317,8.31547095 C162.269209,30.4926232 145.427703,52.6798304 128.516996,74.8143968 C128.068674,75.4013276 127.227198,76.6200176 126.491169,77.9154433 Z" id="Fill-6" fill="#FFFFFF"></path>
                    <path d="M61.6399074,64.9934695 C59.9005206,57.8788117 59.7202,50.2757659 60.857884,41.6316924 L61.3393536,37.9735071 L64.2329373,40.2628971 C74.3798457,48.2910838 85.4088139,54.733537 100.814549,62.1615748 C102.456104,62.9579593 103.802917,63.6092925 106.712364,65.0148084 C113.565587,68.3255081 116.587715,69.7935085 120.346112,71.6492276 C129.224632,76.0334102 135.029269,82.0065796 137.64291,90.4279172 C138.567315,93.4074736 138.794274,95.29564 138.086495,97.5414133 C138.041988,97.6829578 138.100905,97.8812823 138.454214,98.3677374 C141.751019,102.904357 143.987676,106.731356 148.702268,115.452627 C150.394045,118.582152 151.154621,119.974395 152.115683,121.680183 C152.748341,122.803116 152.929843,123.880672 152.376068,124.922664 C151.946715,125.73054 151.443818,126.045236 150.53009,126.422832 C150.356626,126.49376 150.287699,126.522023 150.227148,126.547975 C148.544487,127.306867 147.227781,127.90297 144.350348,129.206838 C137.578298,132.275497 134.406165,133.706158 130.713027,135.346928 C132.452151,138.478214 132.855665,141.912475 132.507449,146.665133 C131.867142,155.375519 129.661331,163.470739 125.257268,175.274642 C124.932265,176.1455 124.594545,177.035848 124.240245,177.956684 C122.915546,181.399617 117.871711,193.931403 117.995946,193.618736 L116.433092,197.552039 L114.254888,193.923154 C110.410669,187.518687 97.0823704,165.315191 94.419981,160.879722 C93.7162579,159.686974 93.2014411,158.815893 92.0505826,156.870778 C89.4252994,152.433675 88.2639745,150.459705 86.8300431,147.980327 C83.6528052,142.486013 80.0465356,137.348986 75.9822554,132.53619 C73.7195616,129.856134 70.9312865,128.639141 67.2684617,128.652782 C65.1325803,128.661023 63.0648678,128.957781 61.0801956,129.547762 C60.0243491,129.863087 59.1201249,130.141944 57.8565161,130.538132 C57.4785845,130.656627 57.0521266,130.790719 56.20958,131.055707 C55.5095033,131.275743 54.9741607,131.443438 54.4275589,131.613648 L50.2021508,132.92942 L51.8645829,128.827999 C52.7851109,126.556946 57.1888349,115.637701 58.4065116,112.639583 C60.1288401,108.39893 61.6060292,104.807035 63.0430169,101.377048 C63.5922216,100.065387 63.4808239,99.4622962 62.5232329,98.4495462 C54.7687141,90.2490642 52.1306628,74.8109287 56.6999399,64.4386443 L57.7868794,61.9712854 L59.9082945,63.6352852 C60.5369464,64.128365 61.1112869,64.5788464 61.6399074,64.9934695 Z" id="Path" fill="#FFFFFF" fill-rule="nonzero"></path>
                    <path d="M44.868469,146.286044 C47.3567816,130.156668 49.9267169,114.039122 52.4747679,97.918027 C52.6658126,96.712612 52.4848229,95.6325886 51.967287,94.4975584 C39.6369205,67.4449224 27.3396763,40.3774996 15.0394747,13.3106682 C14.5550611,12.2436571 14.1025869,11.1624507 13.6294112,10.0729637 C14.3048695,9.40223717 15.0767373,9.70033785 15.7545614,9.69974638 C35.1192758,9.68081935 54.4839901,9.70743548 73.8487044,9.64592265 C75.5054108,9.64059942 76.1181733,10.1687818 76.531019,11.7373591 C79.7054363,23.7962411 82.9792205,35.8290984 86.2228397,47.8696448 C86.3896341,48.4906879 86.3553289,49.2554581 87.2431248,49.383807 C88.2036714,49.5222109 88.5171503,48.8083071 88.8264888,48.1304829 C94.6702084,35.3458678 102.377057,23.6028305 109.319136,11.4321608 C109.937221,10.34918 110.532831,9.64592265 111.991987,9.65006293 C131.578502,9.7032952 151.165018,9.6837767 170.751533,9.68732552 C171.170294,9.68732552 171.589645,9.74174072 172.388721,9.79674739 C170.083764,12.8729807 167.997059,15.6931077 165.874275,18.4860271 C152.258645,36.4045983 138.617582,54.3042425 125.047495,72.2571189 C123.955051,73.7026706 123.164256,73.7192318 121.645953,72.9201563 C115.713513,69.7971969 107.655996,66.1655736 100.880639,62.8959297 C87.7580998,56.5632704 75.2936647,49.1247433 63.539981,40.5093973 C61.8040177,39.2377377 61.7342243,40.7057652 61.5236611,41.7018 C60.6329079,45.9237099 60.4554671,50.1846568 60.8434711,54.4893725 C61.1853405,58.2824669 61.8678965,62.0306097 62.5433547,66.1655736 C61.8702623,65.7373496 61.5692043,65.55636 61.2787927,65.3588091 C57.4596736,62.7628491 57.3898802,62.7456965 56.3270093,67.227853 C53.5855478,78.78162 54.6785836,89.5215248 63.2176301,98.6159612 C63.7742029,99.2092052 64.2030184,99.7852965 63.7866238,100.771276 C61.5780764,106.003416 59.4748105,111.279917 57.2916962,116.523294 C55.146436,121.677952 53.1372138,126.879335 51.3994762,132.20197 C52.2281251,132.502437 52.6983434,132.026304 53.2081902,131.816924 C56.8344902,130.32642 60.5010102,128.954802 64.4023436,128.389357 C68.6703882,127.772455 72.6580762,128.189441 75.7845844,131.664324 C83.3997554,140.130029 88.620066,150.161353 94.3011314,159.893394 C94.0089454,161.493319 92.7272308,160.93852 91.818142,160.940295 C75.4539529,160.968685 59.0897638,160.959222 42.7255747,160.957447 C43.0567976,156.011579 44.1149367,151.169809 44.868469,146.286044 Z" id="Fill-28" fill="#DA291C"></path>
                    <path d="M99.9006331,64.0453917 C106.408573,67.2026564 112.933666,70.3244329 119.41913,73.5266493 C127.046721,77.2931276 133.027662,82.6210857 135.64314,91.0483444 C136.239342,92.9700291 136.728487,94.8846161 136.089108,96.9133568 C135.777404,97.9046598 136.162451,98.7753031 136.760426,99.5986287 C142.033969,106.855369 145.908687,114.928929 150.291476,122.707937 C151.103564,124.149348 150.166676,124.277697 149.300765,124.668067 C142.640817,127.675099 135.994473,130.712886 129.315007,133.676741 C128.179386,134.180081 127.688466,134.422584 128.540182,135.783555 C130.588441,139.057339 130.691948,142.790104 130.419281,146.511631 C129.701828,156.27147 126.682376,165.465274 123.295621,174.542557 C121.058683,180.53651 118.593438,186.4447 116.050119,192.845584 C109.255316,181.525447 102.707156,170.617565 96.1589965,159.7085 C93.6511654,155.451102 91.1161268,151.209082 88.642601,146.932166 C85.4179088,141.35579 81.7442911,136.114187 77.5821196,131.185471 C74.8276458,127.922924 71.389433,126.543617 67.2603838,126.558996 C64.9607501,126.567868 62.6918727,126.884304 60.4833253,127.540835 C58.4090414,128.157738 56.3483614,128.82255 53.8050422,129.614527 C57.6277101,120.183545 61.218522,111.150621 64.9743539,102.185717 C65.8532777,100.086591 65.5539941,98.6073257 64.0445637,97.0109493 C56.8658973,89.4194371 54.3882312,74.8799317 58.6160558,65.2827461 C60.994355,67.1482412 63.3549101,68.999541 65.7154653,70.8514323 C61.985658,61.5541218 61.6023858,52.020815 62.9337838,41.9049106 C74.541966,51.0892504 87.0533222,57.8509307 99.9006331,64.0453917" id="Fill-32" fill="#282222"></path>
                    <path d="M95.0293487,161.79207 C78.2954911,161.773734 61.5727464,161.696252 44.8277759,161.696252 C43.3718939,161.696252 42.725693,161.773734 42.725693,160.957506 C59.0898821,160.959281 75.4540712,160.968153 91.8182603,160.940354 C92.7267576,160.938579 94.0084722,161.493378 94.3012497,159.893453 C94.4816807,160.307864 95.0293487,161.403072 95.0293487,161.79207 Z" id="Fill-36" fill="#DD3F34"></path>
                    <path d="M101.38327,63.3207823 C102.203638,63.3793378 102.863127,63.793958 103.494816,64.2706825 C102.746016,64.0536132 101.560711,64.8077369 101.38327,63.3207823" id="Fill-38" fill="#ECECEC"></path>
                    <path d="M66.8045974,59.6521922 C65.9913267,56.3588896 65.5021813,53.0022996 65.9522897,49.1985587 C67.8727915,50.7417029 69.6637614,52.0796071 71.3405777,53.5476346 C77.8733593,59.2653711 85.5382137,63.0933623 93.2421051,66.8923715 C100.604127,70.5222203 108.262475,73.5387152 115.444099,77.5293606 C121.019883,80.6274783 125.098657,85.1746965 127.45034,91.1231061 C128.873416,94.7221986 128.93138,98.3372607 126.406396,101.58088 C123.785003,104.950482 120.181179,105.714069 116.150905,105.310096 C112.041374,104.899024 108.648705,102.826515 105.549996,100.398532 C100.102561,96.1316706 93.9116486,95.5774636 87.3776841,95.997407 C84.1163208,96.2067872 81.1625216,97.0561376 78.6404953,99.1759646 C78.3477179,99.4226074 77.7787241,99.623707 78.073276,100.186195 C78.287388,100.5949 78.6600138,100.492576 79.026725,100.337019 C82.5992013,98.8204913 85.4489018,100.688944 88.294462,102.391193 C90.1640973,103.509662 91.9426464,104.780139 94.2819086,106.325649 C93.6626399,104.474349 93.263398,103.18258 92.7949541,101.916835 C92.4702373,101.038502 92.3974865,100.190926 92.8115152,99.3415761 C93.2486112,98.4443167 94.0370402,98.3869441 94.8917137,98.5288968 C95.6961124,98.662569 95.9421637,99.1605864 95.946304,99.9431006 C95.9534017,101.413494 95.8658642,102.895125 96.3147896,104.335945 C97.9927888,109.72305 102.709167,111.718077 108.313342,109.217935 C109.381536,108.741211 110.371064,108.08882 111.400221,107.525149 C111.824897,107.292702 112.214675,106.604231 112.716241,107.031272 C113.191191,107.436429 113.072897,108.231955 112.812059,108.706906 C110.791008,112.385846 108.323988,115.609356 103.929369,116.636147 C103.213691,116.802941 102.445372,117.047218 101.748621,116.941937 C99.0047933,116.528499 98.9503781,118.131973 99.1284104,120.123452 C99.7127824,126.65505 99.087599,133.271229 100.446796,139.749595 C101.912458,146.729528 104.826628,153.028088 109.917999,158.081012 C113.246198,161.383779 117.393583,160.711278 120.02444,156.789243 C122.855213,152.57029 123.77554,147.739758 124.401314,142.828195 C124.54031,141.737525 124.446858,140.614915 125.028864,139.339707 C126.907371,143.134576 126.4963,147.027037 125.972849,150.681136 C124.619567,160.114485 121.735561,169.137945 117.362235,177.643278 C116.870132,178.599684 116.545415,180.14756 115.545832,180.206707 C114.397789,180.275317 114.286002,178.625709 113.771423,177.723717 C105.774163,163.715943 98.0874239,149.523039 88.9302918,136.211424 C85.4636885,131.171512 81.6067153,126.471695 76.906898,122.484007 C72.705098,118.919219 68.2708505,118.406415 63.4190254,120.914246 C63.2380358,121.007699 62.9919844,120.976351 62.3886854,121.049693 C64.0258732,117.121743 65.5767065,113.383656 67.141735,109.650891 C68.5855123,106.206764 70.1310223,102.811728 71.8232168,99.4776141 C72.7399947,97.6724489 72.1301896,96.0541881 70.7189431,94.6784298 C66.6029062,90.6659001 63.7490655,85.8548865 61.8120026,80.4742876 C60.9880854,78.1858918 60.7449914,75.8099585 60.5486235,72.6461876 C65.4921264,78.4047355 71.2926686,80.4991294 78.5340308,80.2016202 C73.1534319,73.8740785 68.7286479,67.4406638 66.8045974,59.6521922 Z" id="Fill-72" fill="#DA291C"></path>
                    <path d="M127.241315,108.901144 C127.233034,108.099111 126.750987,107.797462 126.387824,107.479251 C125.388241,106.602693 125.682201,105.883466 126.523862,105.126977 C127.456018,104.288864 128.362741,103.420587 129.264141,102.549352 C131.573238,100.317146 131.572647,100.311823 133.320439,103.165664 C136.863934,108.950828 140.404471,114.737766 143.940867,120.52707 C144.235419,121.00971 144.48916,121.51719 144.857054,122.187326 C140.784786,122.665824 136.93905,123.186318 133.078528,123.539425 C131.389291,123.69439 129.530302,123.592657 128.164007,122.561134 C123.434617,118.990432 118.40121,117.47627 112.568137,119.903661 C113.877651,113.520522 119.559899,109.3341 127.241315,108.901144" id="Fill-74" fill="#F68D60"></path>
                    <path d="M133.154532,126.373215 C127.73253,128.727855 122.925657,130.952373 117.797024,132.306246 C115.025398,133.037894 112.477347,132.170208 110.516034,130.168084 C108.981761,128.602464 109.027305,126.589101 109.811002,124.582245 C110.179487,123.636485 110.737835,123.13137 111.803663,123.285744 C118.699607,124.289468 125.596734,125.281362 133.154532,126.373215" id="Fill-76" fill="#F68D60"></path>
                    <path d="M102.57171,101.578869 C102.445727,102.431768 102.04057,102.890748 101.277574,102.913816 C100.506889,102.937475 100.015378,102.499787 99.9787071,101.75217 C99.9355298,100.87916 100.487962,100.3841 101.327258,100.404802 C102.076058,100.422546 102.436855,100.977344 102.57171,101.578869" id="Fill-78" fill="#FFFFFF"></path>
                </g>
                <path d="M62.0354247,138.311954 L62.0354247,134.090802 L60.5278703,134.090802 L60.5278703,133.231323 L64.5653434,133.231323 L64.5653434,134.090802 L63.0612547,134.090802 L63.0612547,138.311954 L62.0354247,138.311954 Z M65.2134185,138.311954 L65.2134185,133.231323 L66.748698,133.231323 L67.6705588,136.696965 L68.5820226,133.231323 L70.1207677,133.231323 L70.1207677,138.311954 L69.1677162,138.311954 L69.1677162,134.312603 L68.1592143,138.311954 L67.1715063,138.311954 L66.1664701,134.312603 L66.1664701,138.311954 L65.2134185,138.311954 Z" id="TM" fill="#FFFFFF"></path>
            </g>
        </g>
    </g>
</svg>